<?xml version="1.0" encoding="UTF-8"?>
<!DOCTYPE svg PUBLIC "-//W3C//DTD SVG 1.1//EN" "http://www.w3.org/Graphics/SVG/1.1/DTD/svg11.dtd">
<!-- Creator: CorelDRAW 2018 (64-Bit Оценочная версия) -->
<svg xmlns="http://www.w3.org/2000/svg" xml:space="preserve" width="210mm" height="297mm" version="1.1" style="shape-rendering:geometricPrecision; text-rendering:geometricPrecision; image-rendering:optimizeQuality; fill-rule:evenodd; clip-rule:evenodd"
viewBox="0 0 21000 29700"
 xmlns:xlink="http://www.w3.org/1999/xlink">
 <defs>
  <style type="text/css">
   <![CDATA[
    .str1 {stroke:#EBECEC;stroke-width:500;stroke-miterlimit:22.9256}
    .str0 {stroke:#FEFEFE;stroke-width:20;stroke-miterlimit:22.9256}
    .fil1 {fill:none}
    .fil0 {fill:#EBECEC}
   ]]>
  </style>
 </defs>
 <g id="Слой_x0020_1">
  <metadata id="CorelCorpID_0Corel-Layer"/>
  <path class="fil0 str0" d="M6631.32 20357.95c22.41,43.9 284.31,286.04 330.01,339.14 45.36,-16.79 587.67,-575.25 633.88,-622.16l469.94 -469.88c49.72,-50.41 108.76,-115.52 160.15,-158.16l1096.04 1093.55c37.1,37.26 126.73,140.33 168.12,156.54 46.9,-55.08 110.09,-110.34 163.4,-164.64 40.28,-41.02 145.08,-132.33 166.31,-174.39 -22.45,-35.43 -336.32,-342.42 -392.07,-397.55l-994.76 -994.78c-25.6,-25.75 -186.83,-183.14 -207.04,-193.44 -26.15,12.8 -76.94,71.31 -102.36,94.81l-1095.22 1089.23c-57.91,57.67 -373.16,365.11 -396.4,401.73z"/>
  <circle class="fil1 str1" cx="8225.25" cy="20078.59" r="2440.26"/>
 </g>
</svg>
